<svg id="a" xmlns="http://www.w3.org/2000/svg" width="193.96" height="155.7" viewBox="0 0 193.96 155.7"><g><path d="M9.82,121.21l-4.41,1.09,.12-35.16,9.45-2.33,.06-16.87-5.04,1.24-.03,9.55-4.41,1.09,.05-14,42.7-10.53-.05,14-28.83,7.11-.03,7.32,20.95-5.17-.02,4.46-20.95,5.17-.02,5.09,20.95-5.17-.02,4.46-20.95,5.17-.07,21.16-4.41,1.09,.11-30.71-5.04,1.24-.03,9.55-.07,21.16Zm9.62-49.27l24.42-6.02,.02-5.09-24.42,6.02-.02,5.09Z" style="fill:#863cdd;"/><path d="M58.82,109.36l-4.41,1.09,.13-35.64,32.85-8.1-.05,14-18.99,4.68-.03,7.64,30.41-7.5-.02,4.46-30.41,7.5-.02,5.09,30.41-7.5-.02,4.46-39.86,9.83Zm40.01-52.79l-44.27,10.92,.02-4.46,44.27-10.92-.02,4.46Zm.03-9.55l-44.27,10.92,.02-4.46,44.27-10.92-.02,4.46Zm-40.03,57.88l5.04-1.24,.06-17.18-5.04,1.24-.04,12.09-.02,5.09Zm.08-21.64l24.03-5.93,.02-5.09-24.03,5.93-.02,5.09Z" style="fill:#863cdd;"/><path d="M193.92,19.6l-24.3,62.19-10.95,2.7-9.92-21-10.09,25.94-10.95,2.7-23.91-50.3,27.26-6.72-.02,4.46-20.56,5.07,20.16,42.32,5.12-1.26,10.56-27.25,2.46-6.25,2.46-6.41-2.42-5.12-2.46,6.33-2.46,6.17-10.64,27.03-16.41-32.43,14.5-3.58-.02,4.46-7.64,1.89,9.54,18.79,8.26-21.12,2.46-6.25,2.46-6.25,2.46-6.17,2.34,4.99,2.5,5.03,2.34,5.06,8.2,17.05,9.69-23.53-8.67,2.14,.02-4.46,15.52-3.83-16.67,40.6-10.47-21.82-2.54,6.51,10.47,22.06,5.12-1.26,20.49-52.35-21.82,5.38,.02-4.46,28.52-7.03Z" style="fill:#863cdd;"/></g><g style="opacity:.5;"><path d="M28.27,13.95l15.29,32.32-28.52,7.04-3.07,.76,1.27-3.16,11.53-29.28,10.45,21.11-11.24,2.77v-2.85l6.86-1.69-6.1-12.27-8.43,21.45,22.98-5.67-12.89-27.22-3.22,.8L8.94,54.76l-3.07,.76L21.31,15.66l6.95-1.72Z" style="fill:#863cdd;"/></g><g style="opacity:.5;"><path d="M73.42,145.56c-2.03,.5-3.94,.58-5.73,.25-1.79-.33-3.36-1.01-4.69-2.03-1.33-1.02-2.38-2.34-3.14-3.96s-1.14-3.46-1.13-5.51c0-2.05,.4-4.07,1.18-6.08,.78-2,1.83-3.84,3.17-5.52,1.34-1.68,2.91-3.13,4.71-4.35,1.8-1.22,3.71-2.08,5.74-2.58,2.16-.53,4.2-.59,6.14-.17,1.94,.42,3.6,1.27,5.01,2.55l-1.62,1.84c-1.23-1.1-2.66-1.82-4.3-2.18-1.64-.36-3.38-.31-5.23,.14-1.75,.43-3.38,1.17-4.91,2.22-1.53,1.05-2.86,2.29-3.99,3.7-1.13,1.42-2.04,2.99-2.71,4.71-.67,1.72-1.01,3.45-1.02,5.18,0,1.76,.32,3.33,.98,4.71,.66,1.38,1.56,2.5,2.68,3.36,1.12,.86,2.45,1.44,3.98,1.74,1.52,.3,3.16,.23,4.9-.2,1.8-.44,3.5-1.23,5.12-2.35,1.62-1.12,3.03-2.51,4.25-4.15l.03-7.43-2.31,.57-.02,6.49-.39,.45c-.93,1.03-1.96,1.9-3.1,2.59-1.14,.7-2.33,1.2-3.56,1.5-1.41,.35-2.74,.4-3.98,.17-1.24-.24-2.33-.71-3.26-1.43-.93-.71-1.67-1.63-2.2-2.76-.54-1.12-.8-2.4-.79-3.83,0-1.42,.28-2.83,.82-4.22,.54-1.39,1.28-2.67,2.23-3.85,.94-1.18,2.03-2.19,3.28-3.04,1.25-.85,2.58-1.45,3.99-1.8v2.18c-1.14,.28-2.19,.75-3.17,1.42-.98,.67-1.84,1.47-2.58,2.41-.75,.94-1.33,1.95-1.76,3.06-.43,1.1-.64,2.21-.65,3.33,0,1.14,.2,2.16,.62,3.05,.42,.89,1,1.62,1.74,2.17,.74,.56,1.6,.93,2.57,1.11,.97,.19,2.03,.14,3.16-.14,1.82-.45,3.45-1.4,4.89-2.84l.03-7.66,4.47-1.1,2.16-.53v2.18l-.04,8.24-.27,.38c-1.42,2.03-3.1,3.74-5.06,5.13-1.95,1.39-4.02,2.35-6.2,2.89Z" style="fill:#863cdd;"/><path d="M91.28,128.96l-2.31,.57,7.22-18.64,2.39-.59,11.61,24.64-12.2,3.01v-2.18l4.09-1.01-4.73-10.02-5.74,14.78-2.31,.57,8.07-20.87,7.06,14.96,2.5-.62-9.54-20.29-6.09,15.68Z" style="fill:#863cdd;"/><path d="M141.24,99.81l1.85-.46v1.17l-.1,26.32-2.16,.53,.08-22.08-2.48,5.51-.06,17.22-2.16,.53,.05-12.95-4.61,10.19-.31,.74-.78,1.71-.04,.05-.08-.02-.77,.19-2.69,.67-2.42,.6-1.07-1.91-4.78-8.26-.05,13.3-2.16,.53,.06-17.54-2.45-4.21-.08,22.4-2.16,.53,.09-26.63v-.89l1.97-.48,.19,.3,4.47,7.79,.12-.03v.19l7.19,12.41,2.66-.66-1.03-1.84-1.22-2.07-9.6-16.78,2.43-.6,8.41,14.67,8.53-18.85,2.42-.6-9.77,21.56,1.38,2.38,10.82-23.92,.31-.7Z" style="fill:#863cdd;"/><path d="M148.08,125.59l-2.16,.53,.02-6.84,.04-10.58,.04-10.42,21.64-5.34v2.18l-19.49,4.81-.03,8.24,2.46-.61,.02-5.75,17.02-4.2v2.18l-14.87,3.67v3.58l9.34-2.31-.02,6.84-9.35,2.31v3.73l14.85-3.67v2.18l-17.02,4.2,.02-5.91-2.46,.61-.03,8.4,19.48-4.81v2.18l-17.02,4.2-2.46,.61Zm.04-12.75l11.82-2.92v-2.49l-11.81,2.92v2.49Z" style="fill:#863cdd;"/><path d="M180.45,102.65c1.21,.07,2.4,.14,3.58,.22s2.24,.26,3.18,.54c.94,.27,1.69,.67,2.27,1.19,.58,.52,.86,1.22,.86,2.1l-.05,2.19c-.06,1.08-.35,2.15-.9,3.23-.54,1.08-1.27,2.08-2.19,3.01-.92,.93-1.98,1.74-3.19,2.44-1.21,.7-2.5,1.22-3.86,1.55-1.29,.32-2.5,.44-3.64,.36-1.14-.08-2.16-.32-3.04-.73-.88-.4-1.62-.95-2.21-1.65-.59-.7-.96-1.52-1.11-2.46-.08-.32-.11-.67-.11-1.06v-1.09l2.16-.53,4.47-1.1v1.05c.02,.07,.12,.16,.28,.28,.17,.12,.4,.21,.69,.3,.29,.08,.65,.13,1.08,.14,.42,.01,.9-.05,1.44-.18s1.02-.31,1.44-.53c.42-.22,.78-.44,1.06-.67s.51-.44,.68-.63c.17-.2,.28-.34,.33-.43v-.51c-.2-.08-.53-.15-.98-.22-.45-.07-.95-.14-1.5-.21-.55-.07-1.13-.13-1.75-.17-.62-.04-1.19-.09-1.73-.14-1.69-.15-3.17-.29-4.42-.42-1.26-.13-2.33-.3-3.23-.52v-2.41c.24,.07,.52,.15,.85,.22s.74,.15,1.23,.24c.92,.14,1.92,.25,3,.35,1.08,.1,2.15,.19,3.23,.29,1.41,.12,2.59,.23,3.56,.33,.96,.1,1.73,.22,2.31,.36s.99,.33,1.23,.55c.24,.22,.36,.51,.36,.84v.93c0,.42-.15,.87-.43,1.37-.29,.5-.68,.98-1.18,1.44-.5,.46-1.1,.88-1.79,1.26-.69,.38-1.45,.67-2.27,.87-1.31,.32-2.44,.36-3.38,.12-.95-.25-1.6-.66-1.96-1.25l-2.46,.61c.18,.63,.5,1.18,.96,1.65,.46,.47,1.04,.83,1.73,1.09,.69,.26,1.47,.4,2.34,.43,.87,.03,1.79-.07,2.77-.31,1.1-.27,2.14-.68,3.1-1.23,.96-.55,1.8-1.18,2.53-1.89,.72-.71,1.29-1.47,1.72-2.29,.43-.82,.64-1.63,.64-2.43v-1.87c0-.49-.25-.88-.78-1.17-.53-.28-1.19-.51-2-.67-.81-.16-1.7-.28-2.67-.35s-1.92-.13-2.85-.19c-1.26-.05-2.47-.13-3.65-.23-1.18-.1-2.22-.27-3.11-.53-.9-.26-1.62-.64-2.17-1.13-.55-.5-.82-1.19-.82-2.07v-1.71c.11-1.06,.46-2.12,1.04-3.17s1.32-2.02,2.23-2.9c.9-.88,1.95-1.66,3.13-2.34,1.18-.68,2.44-1.19,3.78-1.52,1.39-.34,2.69-.46,3.91-.34,1.22,.11,2.29,.42,3.2,.92,.91,.5,1.63,1.17,2.17,2.01,.54,.84,.81,1.8,.84,2.88l-2.2,.54c-.02-.8-.24-1.49-.67-2.09s-.99-1.06-1.71-1.4c-.72-.34-1.56-.55-2.52-.62-.96-.07-1.98,.02-3.06,.29-1.1,.27-2.14,.68-3.1,1.23-.96,.55-1.81,1.18-2.53,1.89-.72,.71-1.29,1.47-1.72,2.29-.43,.82-.64,1.63-.64,2.43v1.09c0,.47,.25,.84,.76,1.11,.51,.28,1.17,.5,1.96,.66,.8,.17,1.68,.29,2.64,.36,.96,.07,1.91,.12,2.83,.16Zm-3.49-4.81c.36,.09,.87,.17,1.54,.22,.67,.06,1.31,.11,1.93,.17,.85,.08,1.72,.15,2.62,.23,.9,.08,1.79,.18,2.66,.32,.87,.13,1.71,.3,2.5,.49,.79,.19,1.51,.43,2.16,.71v2.88c-.57-.54-1.57-1-3.01-1.4-1.16-.28-2.41-.5-3.78-.64-1.36-.14-2.63-.26-3.81-.36-.95-.08-1.75-.14-2.41-.2s-1.19-.15-1.6-.27c-.41-.12-.71-.27-.9-.46-.19-.19-.29-.43-.29-.75v-.08c0-.41,.14-.87,.43-1.37,.28-.5,.67-.98,1.18-1.44,.5-.46,1.1-.88,1.79-1.26,.69-.38,1.45-.67,2.28-.87,.85-.21,1.61-.29,2.29-.26,.68,.04,1.26,.16,1.75,.37,.49,.2,.86,.48,1.13,.83,.27,.35,.4,.73,.4,1.14l-2.16,.53c-.08-.14-.39-.31-.94-.52-.55-.21-1.38-.18-2.49,.09-.85,.21-1.55,.51-2.1,.91-.55,.4-.95,.73-1.18,.99Z" style="fill:#863cdd;"/></g><polygon points="52.22 35.26 56.09 43.29 193.88 9 193.88 0 52.22 35.26" style="fill:#863cdd; opacity:.5;"/><polygon points="47.49 122.68 5.1 133.23 5.1 142.23 47.49 131.68 47.49 122.68" style="fill:#863cdd; opacity:.5;"/></svg>
